<?xml version="1.0" encoding="utf-8"?>
<!-- Generator: Adobe Illustrator 24.2.1, SVG Export Plug-In . SVG Version: 6.00 Build 0)  -->
<svg version="1.1" id="Layer_1" xmlns="http://www.w3.org/2000/svg" xmlns:xlink="http://www.w3.org/1999/xlink" x="0px" y="0px"
	 viewBox="0 0 378.3 296" style="enable-background:new 0 0 378.3 296;" xml:space="preserve">
<g id="Layer_2_1_">
	<g id="Layer_1-2">
		<path d="M24.5,2.5h329.3c12.2,0,22,9.8,22,22l0,0c0,12.2-9.8,22-22,22H24.5c-12.2,0-22-9.8-22-22l0,0C2.5,12.3,12.3,2.5,24.5,2.5z
			"/>
		<path d="M24.5,126.5h329.3c12.2,0,22,9.8,22,22l0,0c0,12.2-9.8,22-22,22H24.5c-12.2,0-22-9.8-22-22l0,0
			C2.5,136.3,12.3,126.5,24.5,126.5z"/>
		<path d="M353.8,249.5H25.1c-11.4,0-21.4,8.5-22.5,19.9c-1.1,12.1,7.8,22.9,19.9,24c0.7,0.1,1.3,0.1,2,0.1h328.7
			c11.4,0,21.4-8.5,22.5-19.9c1.1-12.1-7.8-22.9-19.9-24C355.1,249.5,354.5,249.5,353.8,249.5z"/>
	</g>
</g>
</svg>
